<?xml version="1.0" standalone="no"?> <!DOCTYPE svg PUBLIC "-//W3C//DTD SVG 1.0//EN" "http://www.w3.org/TR/2001/REC-SVG-20010904/DTD/svg10.dtd" > <svg xmlns="http://www.w3.org/2000/svg" width="100%" height="100%">
<defs >
<font id="itckabelstdbook" horiz-adv-x="836" ><font-face
    font-family="ITC Kabel Std Book"
    units-per-em="2048"
    panose-1="2 13 4 2 2 2 4 2 9 4"
    ascent="1482"
    descent="-565"
    alphabetic="0" />
<missing-glyph horiz-adv-x="1024" d="M0 0V1434H1024V0H0ZM512 809L860 1331H164L512 809ZM573 717L922 195V1239L573 717ZM164 102H860L512 625L164 102ZM102 1239V195L451 717L102 1239Z" />
<glyph unicode=" " glyph-name="space" horiz-adv-x="512" />
<glyph unicode="!" glyph-name="exclam" horiz-adv-x="454" d="M303 1481L283 360L166 348V1458L303 1481ZM109 109L215 229L322 109L215 -12L109 109Z" />
<glyph unicode="&quot;" glyph-name="quotedbl" horiz-adv-x="681" d="M160 850V1405H279V850H160ZM406 850V1405H524V850H406Z" />
<glyph unicode="#" glyph-name="numbersign" horiz-adv-x="1024" d="M948 553L942 446H737L674 0H555L618 446H354L293 0H172L236 446H18L25 553H250L291 850H76L82 956H305L369 1405H487L424 956H688L750 1405H870L807 956H1006L999 850H793L750 553H948ZM674
850H410L369 553H633L674 850Z" />
<glyph unicode="$" glyph-name="dollar" horiz-adv-x="1024" d="M522 201V662Q423 678 352 714T235 821T190 989Q190 1129 285 1217T522 1311V1448L612 1481V1311Q804 1288 909 1165L842 1092Q734 1199 612 1204V768Q678 758 736 734T841 670T916 572T944 444Q944
296 853 206T612 94V-113L522 -131V94Q418 99 323 148T164 281L250 354Q298 289 371 247T522 201ZM522 780V1204Q416 1201 359 1151T301 999Q301 802 522 780ZM612 649V201Q716 209 775 264T834 422Q834 523 774 579T612 649Z" />
<glyph unicode="%" glyph-name="percent" horiz-adv-x="1705" d="M887 203T887 348T989 595T1237 698Q1382 698 1484 596T1587 348T1485 102T1237 0Q1091 0 989 101ZM1489 348Q1489 451 1415 525T1237 600Q1133 600 1059 526T985 348Q985 244 1059 171T1237 98Q1340
98 1414 171T1489 348ZM1186 1405H1290L477 -33H377L1067 1155L1063 1159Q1008 1127 978 1117T889 1106Q825 1106 776 1145L772 1141Q786 1106 786 1053Q786 908 684 805T436 702T189 805T86 1053T188 1301T436 1405Q588 1405 688 1294Q721 1266 736 1254T783 1221T847
1190T911 1180Q955 1180 995 1199T1072 1256T1132 1326T1186 1405ZM688 949T688 1053T614 1232T436 1307Q332 1307 258 1232T184 1053Q184 948 258 875T436 801Q539 801 613 875Z" />
<glyph unicode="&amp;" glyph-name="ampersand" horiz-adv-x="1251" d="M561 786L856 426L1112 676L1192 598L930 342L1176 41L1079 -16L848 262Q822 239 776 192T698 114T621 51T527 1T426 -16Q276 -16 177 81T78 330Q78 371 85 408T109 479T142 539T188 597T237
648T294 702T350 754L403 807Q264 978 264 1130Q264 1271 348 1354T569 1438Q678 1438 762 1365T846 1184Q846 1134 828 1088T776 1000T710 926T631 852T561 786ZM778 352L473 717Q444 686 385 632T291 543T227 449T197 324Q197 229 262 166T424 102Q474 102 527
131T616 194T702 279T778 352ZM494 870Q503 877 530 899T570 932T607 965T645 1003T677 1043T704 1088T720 1135T727 1188Q727 1250 678 1290T559 1331Q471 1331 427 1273T383 1126Q383 1059 416 988T494 870Z" />
<glyph unicode="&apos;" glyph-name="quotesingle" horiz-adv-x="454" d="M168 850V1405H287V850H168Z" />
<glyph unicode="(" glyph-name="parenleft" horiz-adv-x="681" d="M528 1438L561 1339Q351 1186 243 998T135 561Q135 65 573 -211L524 -301Q288 -150 158 72T27 567Q27 841 158 1064T528 1438Z" />
<glyph unicode=")" glyph-name="parenright" horiz-adv-x="681" d="M154 -301L121 -203Q331 -49 439 139T547 575Q547 1070 109 1348L158 1438Q394 1287 524 1065T655 569Q655 295 524 73T154 -301Z" />
<glyph unicode="*" glyph-name="asterisk" horiz-adv-x="909" d="M139 1290L403 1139V1415L500 1438V1137L743 1280L813 1206L535 1055L799 915L768 825L500 981V694L403 670V981L158 836L96 907L367 1063L111 1200L139 1290Z" />
<glyph unicode="+" glyph-name="plus" horiz-adv-x="1228" d="M555 573V1028H674V573H1128V455H674V0H555V455H100V573H555Z" />
<glyph unicode="," glyph-name="comma" horiz-adv-x="512" d="M61 -377L233 147L387 170L176 -377H61Z" />
<glyph unicode="-" glyph-name="hyphen" horiz-adv-x="681" d="M602 569V459H80V569H602Z" />
<glyph unicode="." glyph-name="period" horiz-adv-x="512" d="M150 109L256 229L362 109L256 -12L150 109Z" />
<glyph unicode="/" glyph-name="slash" horiz-adv-x="569" d="M571 1438L102 -33H0L469 1438H571Z" />
<glyph unicode="0" glyph-name="zero" horiz-adv-x="1024" d="M63 702Q63 783 77 875T126 1069T211 1252T339 1385T512 1438T684 1386T813 1252T897 1070T946 876T961 702Q961 622 947 529T898 335T813 153T685 20T512 -33T340 19T211 153T127 335T78 529T63 702ZM195
702Q195 643 204 569T238 408T296 251T387 133T512 86T636 133T727 250T786 407T819 568T829 702Q829 762 820 836T786 997T728 1154T637 1272T512 1319T388 1272T297 1155T238 997T205 836T195 702Z" />
<glyph unicode="1" glyph-name="one" horiz-adv-x="1024" d="M530 -16V1274L164 1069L127 1157L657 1481H662V0L530 -16Z" />
<glyph unicode="2" glyph-name="two" horiz-adv-x="1024" d="M59 0L496 459Q513 477 558 523T625 593T686 662T744 739T786 817T819 905T829 997Q829 1140 739 1229T506 1319Q373 1319 283 1231T193 1008Q193 866 276 776T502 664L420 563Q264 589 163 711T61
993Q61 1182 188 1310T502 1438Q705 1438 833 1306T961 969Q961 769 711 512L326 119H952L932 0H59Z" />
<glyph unicode="3" glyph-name="three" horiz-adv-x="1024" d="M346 690V799Q405 796 458 800T567 821T663 865T728 941T754 1055Q754 1176 678 1247T483 1319Q388 1319 313 1277T168 1155L84 1237Q156 1310 205 1348T326 1412T487 1438Q654 1438 769 1338T885
1073Q885 963 826 881T662 752Q784 705 854 607T924 381Q924 287 887 208T787 77T642 -4T467 -33Q333 -33 220 40T47 236L154 303Q200 204 280 145T465 86Q609 86 701 166T793 393Q793 466 769 519T705 605T605 656T484 682T346 690Z" />
<glyph unicode="4" glyph-name="four" horiz-adv-x="1024" d="M733 512H975L954 393H733V0L602 -16V393H2L729 1481H733V512ZM201 512H602V1128H598L201 512Z" />
<glyph unicode="5" glyph-name="five" horiz-adv-x="1024" d="M33 178L125 262Q271 86 459 86Q604 86 701 186T799 432Q799 582 701 681T453 780Q371 780 309 757T166 682V1405H834L803 1286H297V862Q381 899 477 899Q600 899 705 836T870 666T930 436Q930 295
863 186T691 22T461 -33Q323 -33 207 23T33 178Z" />
<glyph unicode="6" glyph-name="six" horiz-adv-x="1024" d="M199 461Q199 304 293 195T530 86Q603 86 661 121T756 214T812 344T831 492Q831 651 749 759T518 868Q413 868 339 808T232 658T199 461ZM639 1481L729 1405Q431 1133 301 893L305 889Q426 975 532
975Q660 975 760 903T911 719T963 477Q963 334 907 218T750 34T524 -33Q387 -33 282 39T122 229T68 487Q68 614 120 762T257 1042T440 1289T639 1481Z" />
<glyph unicode="7" glyph-name="seven" horiz-adv-x="1024" d="M965 1405L436 0L295 -16L793 1286H72L94 1405H965Z" />
<glyph unicode="8" glyph-name="eight" horiz-adv-x="1024" d="M231 1032Q231 916 318 851T526 786Q643 786 720 858T797 1047Q797 1172 720 1245T522 1319Q391 1319 311 1244T231 1032ZM61 391Q61 510 141 608T336 735V739Q239 759 170 850T100 1042Q100 1222
210 1330T500 1438Q615 1438 711 1395T867 1265T928 1059Q928 952 866 868T700 739Q819 695 891 600T963 379Q963 255 900 160T736 16T514 -33Q321 -33 191 82T61 391ZM193 365Q193 284 240 219T357 120T504 86Q642 86 736 168T831 391Q831 520 738 600T512 680Q364
680 279 596T193 365Z" />
<glyph unicode="9" glyph-name="nine" horiz-adv-x="1024" d="M195 913Q195 811 229 727T337 590T510 537Q615 537 688 596T794 745T827 942Q827 1101 733 1210T498 1319Q440 1319 390 1296T305 1234T244 1142T207 1032T195 913ZM389 -76L299 0Q592 266 727 512L723
516Q602 430 496 430Q368 430 268 501T115 686T63 928Q63 1071 120 1187T278 1371T504 1438Q641 1438 746 1366T904 1176T958 918Q958 791 906 643T770 363T587 116T389 -76Z" />
<glyph unicode=":" glyph-name="colon" horiz-adv-x="512" d="M150 109L256 229L362 109L256 -12L150 109ZM150 641L256 762L362 641L256 520L150 641Z" />
<glyph unicode=";" glyph-name="semicolon" horiz-adv-x="512" d="M-4 -377L164 147L317 170L106 -377H-4ZM150 641L256 762L362 641L256 520L150 641Z" />
<glyph unicode="&lt;" glyph-name="less" horiz-adv-x="1228" d="M1135 111V-16L94 459V569L1135 1044V918L242 514L1135 111Z" />
<glyph unicode="=" glyph-name="equal" horiz-adv-x="1228" d="M1128 776V657H100V776H1128ZM1128 371V252H100V371H1128Z" />
<glyph unicode="&gt;" glyph-name="greater" horiz-adv-x="1228" d="M94 111L987 514L94 918V1044L1135 569V459L94 -16V111Z" />
<glyph unicode="?" glyph-name="question" horiz-adv-x="909" d="M528 403L430 379V629Q430 674 447 709T490 767T550 813T615 860T674 915T718 993T735 1104Q735 1210 659 1286T475 1362Q411 1362 363 1348T279 1302T216 1233T160 1135L57 1190Q189 1481 455
1481Q622 1481 738 1368T854 1087Q854 1019 836 965T790 875T726 809T656 753T593 698T546 630T528 541V403ZM385 109L492 229L598 109L492 -12L385 109Z" />
<glyph unicode="@" glyph-name="at" horiz-adv-x="1638" d="M537 575Q537 483 585 426T709 369Q774 369 835 415T938 532T1005 681T1030 827Q1030 904 981 965T870 1026Q800 1026 736 982T630 871T562 725T537 575ZM1094 969L1141 1096H1255L1073 526Q1021 362
1098 362Q1171 362 1242 434T1357 613T1401 821Q1401 974 1325 1092T1126 1270T854 1331Q680 1331 538 1245T317 1013T238 694Q238 525 320 382T546 157T860 74Q1007 74 1144 141T1368 324H1481Q1390 158 1221 63T860 -33Q655 -33 485 66T217 335T119 709Q119 907
219 1075T487 1340T850 1438Q1033 1438 1186 1360T1429 1142T1520 827Q1520 712 1477 605T1366 424T1218 306T1063 262Q1010 262 974 295T934 391H930Q803 262 678 262Q555 262 479 348T403 563Q403 645 424 727T488 881T586 1010T717 1100T874 1133Q1028 1133
1094 969Z" />
<glyph unicode="A" glyph-name="A" horiz-adv-x="1366" d="M989 553H387L102 -33L-33 0L682 1438H686L1401 0L1278 -29L989 553ZM918 680L684 1149L449 680H918Z" />
<glyph unicode="B" glyph-name="B" horiz-adv-x="1024" d="M139 1405H496Q682 1405 787 1314T893 1036Q893 819 709 727Q826 669 880 588T934 381Q934 195 824 98T492 0H139V1405ZM266 649V127H481Q572 127 636 147T733 204T781 283T795 381Q795 501 723 575T522
649H266ZM266 1278V776H459Q610 776 688 844T766 1034Q766 1149 694 1213T512 1278H266Z" />
<glyph unicode="C" glyph-name="C" horiz-adv-x="1138" d="M1053 188L1034 33Q891 -33 770 -33Q628 -33 497 24T268 177T112 411T53 702T111 992T267 1227T496 1381T770 1438Q891 1438 1034 1372L1053 1217Q1004 1255 924 1283T760 1311Q601 1311 471 1229T267
1008T193 702T266 397T470 176T760 94Q850 94 926 121T1053 188Z" />
<glyph unicode="D" glyph-name="D" horiz-adv-x="1251" d="M139 0V1405H500Q642 1405 769 1352T987 1208T1132 987T1186 711Q1186 513 1097 351T851 94T500 0H139ZM266 1278V127H473Q638 127 769 202T973 411T1047 711Q1047 959 900 1118T504 1278H266Z" />
<glyph unicode="E" glyph-name="E" horiz-adv-x="1024" d="M948 0H152V1405H911L936 1278H279V776H842V649H279V127H971L948 0Z" />
<glyph unicode="F" glyph-name="F" horiz-adv-x="796" d="M152 1405H750L774 1278H279V776H666V649H279V0L152 -16V1405Z" />
<glyph unicode="G" glyph-name="G" horiz-adv-x="1366" d="M1270 762V158Q1022 -33 760 -33Q616 -33 487 23T262 176T110 414T53 713Q53 826 85 933T182 1131T333 1291T538 1399T788 1438Q903 1438 1034 1386T1245 1253L1167 1155Q959 1311 791 1311Q663 1311
551 1263T361 1134T238 943T193 713Q193 589 239 475T363 277T548 144T772 94Q962 94 1143 231V635H692L733 762H1270Z" />
<glyph unicode="H" glyph-name="H" horiz-adv-x="1366" d="M279 0L152 -16V1405L279 1438V776H1085V1405L1212 1438V0L1085 -16V649H279V0Z" />
<glyph unicode="I" glyph-name="I" horiz-adv-x="454" d="M164 -16V1405L291 1438V0L164 -16Z" />
<glyph unicode="J" glyph-name="J" horiz-adv-x="796" d="M27 51L86 176Q118 141 170 118T274 94Q516 94 516 401V1405L643 1438V438Q643 348 634 280T599 150T533 51T424 -10T266 -33Q204 -33 136 -11T27 51Z" />
<glyph unicode="K" glyph-name="K" horiz-adv-x="1024" d="M262 0L135 -16V1405L262 1438V754H276L870 1438L1014 1395L451 748L1057 45L920 -16L276 729H262V0Z" />
<glyph unicode="L" glyph-name="L" horiz-adv-x="796" d="M752 0H152V1405L279 1438V127H791L752 0Z" />
<glyph unicode="M" glyph-name="M" horiz-adv-x="1593" d="M801 293L1274 1438H1278L1561 0L1434 -16L1233 1024H1229L803 -33H799L356 1024H352L160 -16L33 0L319 1438H324L801 293Z" />
<glyph unicode="N" glyph-name="N" horiz-adv-x="1366" d="M1094 309V1405L1221 1430V-33H1217L276 1102H272V0L145 -16V1438H150L1090 309H1094Z" />
<glyph unicode="O" glyph-name="O" horiz-adv-x="1593" d="M648 1438T797 1438T1083 1380T1320 1224T1480 989T1540 702T1480 416T1320 182T1083 25T797 -33T511 25T273 181T113 416T53 702T113 988T273 1223T510 1380ZM797 1311Q636 1311 497 1229T275 1006T193
702T275 399T496 177T797 94Q917 94 1029 143T1222 273T1352 467T1401 702T1352 937T1222 1131T1029 1262T797 1311Z" />
<glyph unicode="P" glyph-name="P" horiz-adv-x="909" d="M260 471V0L133 -16V1405H397Q614 1405 740 1283T866 938Q866 713 734 592T356 471H260ZM260 1278V598H377Q545 598 636 688T727 938Q727 1094 643 1186T418 1278H260Z" />
<glyph unicode="Q" glyph-name="Q" horiz-adv-x="1593" d="M1497 -133L1233 111Q1042 -33 797 -33Q648 -33 511 25T273 181T113 416T53 702T113 988T273 1223T510 1380T797 1438T1083 1380T1320 1224T1480 989T1540 702Q1540 558 1486 429T1335 199L1602 -45L1497
-133ZM1038 471L1235 291Q1313 374 1357 480T1401 702Q1401 823 1352 936T1222 1131T1029 1262T797 1311Q637 1311 498 1228T276 1005T193 702Q193 581 242 469T372 274T565 143T797 94Q982 94 1133 203L934 385L1038 471Z" />
<glyph unicode="R" glyph-name="R" horiz-adv-x="909" d="M266 0L139 -16V1405H422Q599 1405 715 1291T831 993Q831 834 743 727T498 592L928 51L799 -16L274 670H266V0ZM266 1278V694H442Q564 694 628 775T692 993Q692 1102 622 1190T444 1278H266Z" />
<glyph unicode="S" glyph-name="S" horiz-adv-x="1024" d="M70 213L168 291Q234 189 316 142T516 94Q648 94 731 168T815 373Q815 436 791 483T724 559T628 611T514 652T395 689T281 737T185 803T119 901T94 1040Q94 1225 220 1331T535 1438Q638 1438 736 1393T905
1270L827 1176Q750 1243 685 1277T535 1311Q404 1311 319 1244T233 1049Q233 993 257 951T324 881T420 832T533 791T653 752T767 701T863 630T929 527T954 385Q954 197 829 82T514 -33Q214 -33 70 213Z" />
<glyph unicode="T" glyph-name="T" horiz-adv-x="909" d="M518 1278V0L391 -16V1278H2L31 1405H889V1278H518Z" />
<glyph unicode="U" glyph-name="U" horiz-adv-x="1251" d="M1118 1438V444Q1118 221 986 94T627 -33T268 94T135 444V1405L262 1438V440Q262 382 285 323T351 212T466 127T627 94Q792 94 891 207T991 479V1405L1118 1438Z" />
<glyph unicode="V" glyph-name="V" horiz-adv-x="1251" d="M616 283L1165 1438L1298 1405L618 -33H614L-37 1405L96 1438L616 283Z" />
<glyph unicode="W" glyph-name="W" horiz-adv-x="1705" d="M567 -33L-41 1405L96 1438L569 295L772 791L516 1405L647 1438L848 963L1053 1438L1171 1405L924 791L1135 295L1602 1438L1745 1405L1130 -33H1126L848 631L571 -33H567Z" />
<glyph unicode="X" glyph-name="X" horiz-adv-x="1138" d="M152 1421L578 854L967 1421L1081 1364L655 745L1188 49L1063 -16L578 635L109 -16L-23 39L496 758L45 1364L152 1421Z" />
<glyph unicode="Y" glyph-name="Y" horiz-adv-x="1024" d="M80 1438L547 666L950 1438L1090 1405L334 -16L188 16L473 530L-51 1405L80 1438Z" />
<glyph unicode="Z" glyph-name="Z" horiz-adv-x="1138" d="M66 1278L94 1405H1079L262 127H1110L1083 0H27L846 1278H66Z" />
<glyph unicode="[" glyph-name="bracketleft" horiz-adv-x="569" d="M72 -287V1405H408V1307H180V-188H408V-287H72Z" />
<glyph unicode="\" glyph-name="backslash" horiz-adv-x="569" d="M469 -33L0 1438H102L571 -33H469Z" />
<glyph unicode="]" glyph-name="bracketright" horiz-adv-x="569" d="M498 1405V-287H162V-188H389V1307H162V1405H498Z" />
<glyph unicode="^" glyph-name="asciicircum" horiz-adv-x="1228" d="M227 498H96L555 1405H674L1133 498H1004L612 1268L227 498Z" />
<glyph unicode="_" glyph-name="underscore" horiz-adv-x="1024" d="M0 -154H1024V-256H0V-154Z" />
<glyph unicode="`" glyph-name="grave" horiz-adv-x="454" d="M356 1159H250L-29 1444H129L356 1159Z" />
<glyph unicode="a" glyph-name="a" horiz-adv-x="909" d="M139 852L178 991Q327 1053 477 1053Q560 1053 631 1026T751 938T799 793V0L680 -25V104H676Q644 46 578 11T424 -25Q260 -25 147 73T33 334Q33 506 136 614T410 723Q546 723 680 604V776Q680 841 610
887T438 934Q404 934 361 925T288 906T208 877T139 852ZM152 334Q152 226 237 160T432 94Q541 94 610 166T680 348Q680 462 610 533T428 604Q308 604 230 530T152 334Z" />
<glyph unicode="b" glyph-name="b" horiz-adv-x="1251" d="M111 537V1458L229 1483V834Q426 1053 674 1053Q780 1053 874 1016T1038 912T1149 745T1190 526Q1190 378 1120 252T927 50T655 -25Q400 -25 256 127T111 537ZM229 504Q229 326 354 210T657 94Q836 94
950 211T1071 510Q1071 695 953 814T651 934Q473 934 351 813T229 504Z" />
<glyph unicode="c" glyph-name="c" horiz-adv-x="1024" d="M877 199L950 106Q890 48 787 12T582 -25Q357 -25 204 130T51 524Q51 639 97 739T219 907T395 1014T604 1053Q777 1053 956 932L883 836Q768 934 598 934Q413 934 292 814T170 510Q170 400 222 305T366
152T571 94Q736 91 877 199Z" />
<glyph unicode="d" glyph-name="d" horiz-adv-x="1251" d="M1012 512Q1012 641 954 738T802 885T594 934Q506 934 428 898T298 803T216 670T186 518Q186 336 300 215T598 94Q768 94 890 218T1012 512ZM1012 850V1458L1130 1483V0L1012 -25V172H1008Q945 90 835
33T604 -25Q455 -25 333 42T140 235T68 518Q68 743 222 898T600 1053Q830 1053 1008 850H1012Z" />
<glyph unicode="e" glyph-name="e" horiz-adv-x="1024" d="M989 813L207 334Q224 296 255 257T332 180T441 118T571 94Q756 94 961 264V121Q895 55 787 15T580 -25Q424 -25 302 48T113 246T47 526Q47 758 199 905T584 1053Q717 1053 828 982T989 813ZM174 440L803
844Q766 884 709 909T584 934Q403 934 285 817T166 524Q166 476 174 440Z" />
<glyph unicode="f" glyph-name="f" horiz-adv-x="569" d="M76 1028H186V1135Q186 1208 200 1265T242 1359T304 1422T386 1460T478 1478T582 1483L612 1364Q540 1363 493 1359T410 1342T355 1313T323 1266T308 1200T305 1110V1028H598V909H305V0L186 -25V909H47L76 1028Z" />
<glyph unicode="g" glyph-name="g" horiz-adv-x="1024" d="M485 942Q407 942 337 911T221 816T174 670Q174 550 266 479T483 408Q561 408 632 437T751 528T799 670Q799 752 752 816T635 911T485 942ZM4 -127L94 -59Q175 -153 265 -205T469 -258Q553 -258 631 -227T760
-135T811 0Q811 127 710 212T479 297Q412 297 352 283T211 238L254 373Q172 409 114 492T55 664Q55 783 114 872T269 1007T483 1053Q504 1053 546 1051T608 1049Q756 1049 946 1087L911 967Q867 952 821 952Q793 952 766 958L762 954Q918 828 918 672Q918 568 856
482T694 356Q805 305 867 219T930 16Q930 -74 890 -149T784 -274T634 -350T459 -377Q323 -377 205 -308T4 -127Z" />
<glyph unicode="h" glyph-name="h" horiz-adv-x="1024" d="M229 0L111 -16V1458L229 1483V903H233Q275 972 356 1012T530 1053Q593 1053 646 1043T750 1007T836 941T892 837T913 690V0L795 -16V717Q795 828 727 887T535 946Q490 946 439 930T340 881T261 793T229 666V0Z" />
<glyph unicode="i" glyph-name="i" horiz-adv-x="454" d="M287 0L168 -25V1028L287 1053V0ZM217 1483L311 1376L217 1270L123 1376L217 1483Z" />
<glyph unicode="j" glyph-name="j" horiz-adv-x="454" d="M168 1028L287 1053V-10Q287 -200 187 -288T-106 -377L-150 -250Q-100 -258 -74 -258Q64 -258 116 -182T168 88V1028ZM217 1483L311 1376L217 1270L123 1376L217 1483Z" />
<glyph unicode="k" glyph-name="k" horiz-adv-x="796" d="M225 528L688 1065L782 1008L367 524L831 53L756 -16L225 500V0L106 -25V1458L225 1483V528Z" />
<glyph unicode="l" glyph-name="l" horiz-adv-x="454" d="M287 1483V0L168 -25V1458L287 1483Z" />
<glyph unicode="m" glyph-name="m" horiz-adv-x="1593" d="M248 0L129 -16V1028L248 1053V877H252Q286 951 368 1002T526 1053Q642 1053 704 1015T827 883Q880 961 958 1007T1120 1053Q1218 1053 1293 1023T1416 923T1464 750V0L1346 -16V725Q1346 823 1285 884T1128
946Q994 946 925 864T856 637V0L737 -16V725Q737 823 677 884T520 946Q386 946 317 864T248 637V0Z" />
<glyph unicode="n" glyph-name="n" horiz-adv-x="1024" d="M229 0L111 -16V1028L229 1053V883H233Q277 955 358 1004T530 1053Q593 1053 646 1043T750 1007T836 941T892 837T913 690V0L795 -16V717Q795 828 727 887T535 946Q490 946 439 930T340 881T261 793T229 666V0Z" />
<glyph unicode="o" glyph-name="o" horiz-adv-x="1138" d="M569 1053Q716 1053 838 976T1028 776T1096 514Q1096 411 1056 314T947 141T779 21T569 -25T360 20T192 141T83 313T43 514T83 715T192 887T360 1007T569 1053ZM569 934Q457 934 363 875T215 720T162
514T215 309T362 153T569 94Q682 94 776 153T924 308T977 514T924 719T777 875T569 934Z" />
<glyph unicode="p" glyph-name="p" horiz-adv-x="1251" d="M240 516Q240 419 273 339T364 205T496 123T657 94Q745 94 823 130T953 225T1035 358T1065 510Q1065 693 951 813T653 934Q483 934 362 810T240 516ZM240 166V-352L121 -377V1028L240 1053V815H244Q303
923 412 988T647 1053Q757 1053 857 1009T1028 891T1141 717T1184 510Q1184 285 1029 130T651 -25Q526 -25 422 24T244 166H240Z" />
<glyph unicode="q" glyph-name="q" horiz-adv-x="1251" d="M1012 516Q1012 685 890 809T598 934Q415 934 301 814T186 510Q186 433 216 359T298 225T428 130T594 94Q708 94 802 143T954 289T1012 516ZM1012 -377V174H1008Q827 -25 600 -25Q377 -25 223 130T68
510Q68 654 139 779T334 978T604 1053Q728 1053 838 991T1008 829H1012V1028L1130 1053V-352L1012 -377Z" />
<glyph unicode="r" glyph-name="r" horiz-adv-x="569" d="M227 1053V823H231Q285 951 374 1002T612 1053L561 932Q549 934 514 934Q409 934 318 816T227 516V0L109 -25V1028L227 1053Z" />
<glyph unicode="s" glyph-name="s" horiz-adv-x="796" d="M35 131L125 207Q187 148 245 121T383 94Q479 94 541 144T604 285Q604 337 574 372T496 428T390 464T275 500T169 548T91 628T61 754Q61 889 161 971T401 1053Q486 1053 553 1024T709 932L641 838Q511
934 395 934Q303 934 242 889T180 760Q180 708 210 674T288 621T394 588T509 554T615 506T693 423T723 291Q723 137 620 56T356 -25Q263 -25 180 16T35 131Z" />
<glyph unicode="t" glyph-name="t" horiz-adv-x="569" d="M147 1028V1280L266 1346V1028H545V909H266V274Q266 181 309 142T451 102Q514 102 547 106V-4Q481 -16 440 -16Q300 -16 224 60T147 276V909H10L39 1028H147Z" />
<glyph unicode="u" glyph-name="u" horiz-adv-x="1024" d="M111 1028L229 1053V371Q229 82 479 82Q542 82 586 92T673 133T740 216T780 356T795 565V1028L913 1053V0L795 -16V154H791Q758 80 670 28T469 -25Q111 -25 111 356V1028Z" />
<glyph unicode="v" glyph-name="v" horiz-adv-x="909" d="M72 1053L455 262L825 1053L952 1028L457 -25H453L-43 1028L72 1053Z" />
<glyph unicode="w" glyph-name="w" horiz-adv-x="1593" d="M1169 -25L784 788L420 -25H416L-41 1028L76 1053L418 268L788 1053L1171 268L1520 1053L1634 1028L1174 -25H1169Z" />
<glyph unicode="x" glyph-name="x" horiz-adv-x="909" d="M111 1053L451 621L780 1053L887 1004L526 532L907 33L801 -16L451 432L119 -16L6 33L371 532L4 1004L111 1053Z" />
<glyph unicode="y" glyph-name="y" horiz-adv-x="909" d="M412 178L-49 1028L68 1053L479 303L840 1053L958 1028L272 -377L158 -352L412 178Z" />
<glyph unicode="z" glyph-name="z" horiz-adv-x="1024" d="M12 0L743 909H102L129 1028H981L246 119H977L946 0H12Z" />
<glyph unicode="{" glyph-name="braceleft" horiz-adv-x="681" d="M135 524V610Q183 610 215 650T261 751T274 887V1204Q274 1312 321 1375T446 1438H549V1339H465Q423 1339 403 1288T383 1159V856Q383 788 366 732T324 644T279 594T244 569V567Q260 560 279 543T324
492T366 402T383 276V-23Q383 -99 403 -151T463 -203H549V-301H446Q369 -301 322 -239T274 -68V246Q274 367 240 445T135 524Z" />
<glyph unicode="|" glyph-name="bar" horiz-adv-x="454" d="M168 1536H287V-512H168V1536Z" />
<glyph unicode="}" glyph-name="braceright" horiz-adv-x="681" d="M547 612V526Q499 526 467 486T421 386T408 250V-68Q408 -176 361 -238T236 -301H133V-203H217Q259 -203 279 -152T299 -23V281Q299 349 316 405T358 493T403 543T438 567V569Q422 577 403 594T358
644T316 734T299 860V1159Q299 1235 279 1287T219 1339H133V1438H236Q313 1438 360 1375T408 1204V891Q408 769 442 691T547 612Z" />
<glyph unicode="~" glyph-name="asciitilde" horiz-adv-x="1228" d="M1014 649L1087 563Q1064 531 1049 511T1008 465T958 424T901 398T831 387Q793 387 752 399T689 421T618 457Q576 479 548 491T475 515T387 526Q282 526 215 379L141 465Q233 641 397 641Q481
641 633 571Q642 567 670 555T709 538T742 524T777 512T805 505T834 502Q872 502 907 526T963 576T1014 649Z" />
</font>
</defs>
</svg>
